<?xml version="1.0" encoding="utf-8"?>
<!-- Generator: Adobe Illustrator 19.0.0, SVG Export Plug-In . SVG Version: 6.00 Build 0)  -->
<svg version="1.1" id="Ebene_1" xmlns="http://www.w3.org/2000/svg" xmlns:xlink="http://www.w3.org/1999/xlink" x="0px" y="0px"
	 viewBox="0 0 531.3 213.1" style="enable-background:new 0 0 531.3 213.1;" xml:space="preserve">
<style type="text/css">
	.st0{fill:#020202;}
</style>
<g>
	<path class="st0" d="M386.3,61.8c-1.8-3.4-3.5-6.8-5.4-10.5c2.5,0,4.8,0,7,0c7.5,0,14.9,0.1,22.4,0c1.5,0,2.3,0.4,3,1.8
		c14.4,28.9,28.8,57.8,43.2,86.6c0.3,0.7,0.7,1.3,1.1,2.1c0.8-0.5,0.9-1.3,1.2-1.9C473.3,111,487.7,82,502.1,53
		c0.6-1.3,1.3-1.8,2.8-1.8c8.2,0.1,16.5,0,24.7,0c2,0,2,0,1.1,1.9c-26.9,52.8-53.8,105.5-80.6,158.3c-0.4,0.9-0.7,1.6-2,1.6
		c-9.3-0.1-18.5,0-27.8,0c-0.2,0-0.4-0.1-0.6-0.1c-0.1-0.9,0.5-1.5,0.8-2.1c7.2-13.8,14.5-27.5,21.8-41.3c0.6-1.2,0.6-2,0-3.2
		c-15.4-28.9-30.8-57.8-46.2-86.7c-0.2-0.3-0.3-0.6-0.5-0.9c-0.2-0.3-0.3-0.7-0.8-0.5c-0.4,0.2-0.3,0.5-0.2,0.9
		c0.4,2,0.8,4.1,1.1,6.1c0.4,2.6,0.4,5.2,0.4,7.9c0,17.5,0,35,0,52.5c0,7.1,0.3,14.1,0.9,21.1c0.1,1.4-0.3,1.7-1.6,1.7
		c-7.1-0.1-14.3-0.1-21.4,0c-1.6,0-2-0.5-2-2c-0.1-4.3-0.3-8.6-0.4-12.9c0-0.5,0.2-1-0.3-1.3c-0.1,0-0.3,0-0.4,0
		c-7.7,9.7-18,15.2-29.7,18.1c-15,3.7-30,3.9-44.8-1c-10.4-3.5-18.8-9.6-23.6-19.8c-2.2-4.6-3.2-9.4-3.3-14.4c0-1.2,0-2.4,0-3.8
		c-0.8,0.6-0.8,1.3-1.1,1.9c-8,21.4-23.5,34.1-45.8,38.2c-15,2.8-29.6,1.3-43.6-5c-6.8-3.1-12.7-7.3-17.4-13.1
		c-0.2-0.2-0.4-0.3-0.7-0.7c-0.2,3.6-0.4,6.9-0.6,10.3c-0.1,1.8,0.3,4.1-0.8,5.2c-1,1-3.3,0.3-5,0.3c-6.4,0-12.7,0-19.1,0
		c-1.5,0-2.2-0.2-2.1-2c1-16,0.4-32,0.6-47.9c0-1.5-0.4-1.9-1.9-1.9c-34.1,0-68.2,0.1-102.4,0c-1.7,0-1.9,0.6-1.8,2
		c0.4,16.9,12.3,31.2,29.5,35c10.2,2.3,20.2,1.8,29.9-2.5c7.1-3.1,12.4-8.2,15.5-15.4c0.5-1.2,1.3-1.2,2.2-1.2c8,0,16.1,0.1,24.1,0
		c1.9,0,2,0.6,1.6,2.1c-2.1,8.7-6.7,15.9-13.5,21.6c-7.8,6.7-17.1,10.4-27.1,12.2c-18,3.2-35.9,2.8-53.3-3.1
		C15.6,160.2,4.1,145,1,123.3c-1.7-11.5-1.3-23,1.6-34.4c4.7-18.5,16.1-31.2,34.1-37.4C56,45,75.6,44.3,95.1,50.3
		c21.5,6.7,34,21.7,38,43.9c0,0.3,0.1,0.5,0.1,0.8c0.2,0,0.3,0,0.5,0c0-0.9,0-1.8,0-2.6c0-30,0-59.9,0-89.9c0-2.8-0.3-2.4,2.4-2.4
		c7.5,0,15.1,0,22.6,0c1.7,0,2.2,0.4,2.2,2.1c-0.1,20.6,0,41.1,0,61.7c0,0.7,0,1.5,0,2.7c2.1-2.7,4.1-4.9,6.4-6.7
		c7.3-6,15.7-9.5,24.8-11.3c13.6-2.6,27.2-2.6,40.3,2c20.9,7.4,33.2,22.3,38.1,43.7c1.8,7.9,2,15.9,1.1,23.9c0,0.3,0,0.7,0,1
		c0,0,0.1,0.1,0.1,0.1c0.1,0,0.3,0,0.3-0.1c5-10.3,13.9-15.6,24.2-19.1c9.2-3.1,18.7-4.4,28.3-4.9c14-0.7,28.1-0.3,42.1-0.3
		c1.7,0,2.3-0.3,2.2-2.1c-0.2-3,0.1-6.1-0.6-9.1c-1.8-7.6-6.6-12.8-13.6-15.7c-11.6-4.9-23.4-5.1-35.2-0.9
		c-6.7,2.4-11.6,7-13.3,14.2c-0.2,0.9-0.6,1.1-1.4,1.1c-8.5,0-17,0-25.5,0c-1.2,0-1.4-0.4-1.3-1.5c0.4-3.7,1.5-7.2,3.2-10.5
		c4.6-8.8,12-14.3,20.9-18c8.4-3.5,17.2-5,26.2-5.6c11.2-0.7,22.3-0.5,33.2,2.2c9.3,2.3,17.6,6.2,24.2,13.2c0.2,0.3,0.4,0.5,0.7,0.2
		C386.6,62.2,386.5,62,386.3,61.8z M204.5,154.4c15.1-0.6,27.7-8.4,35.1-24.1c4.3-9.1,5.2-18.7,3.8-28.6c-1.8-12.5-7.2-22.9-17.9-30
		c-7.8-5.2-16.5-6.9-25.7-6.4c-15.1,0.8-26.5,7.6-33.6,21.1c-5.5,10.6-6.6,21.8-4.6,33.5C165.3,140.6,181.4,154.3,204.5,154.4z
		 M349.5,112.3c-7.4,0.2-14.8,0.4-22.2,1.2c-6.9,0.7-13.7,1.7-20.1,4.7c-8.1,3.9-11.6,11.1-9.6,19.9c1.8,8,7.1,12.9,14.7,15.2
		c12.4,3.7,24.7,2.7,36.5-2.5c9.6-4.2,15.6-11.6,18.7-21.5c1.5-4.9,1.4-10,1.4-15c0-1.5-0.3-2-1.9-2
		C361.2,112.4,355.3,112.3,349.5,112.3z M66.9,98.8c12.2,0,24.5,0,36.7,0c1.2,0,2.1,0,1.9-1.7c-0.9-13.7-7.2-23.9-20-29.2
		c-14-5.8-27.9-4.8-41,2.9c-9.8,5.7-15.5,14.3-16.3,25.9c-0.1,1.7,0.3,2.2,2,2.2C42.5,98.8,54.7,98.8,66.9,98.8z M394.4,77.2
		c-0.1,0.2-0.4,0.4-0.3,0.5c0.1,0.2,0.3,0.4,0.4,0.6c0.1-0.1,0.3-0.3,0.3-0.4C394.8,77.7,394.6,77.4,394.4,77.2z"/>
</g>
</svg>
